<svg width="280" height="280" viewBox="0 0 280 280" fill="none" xmlns="http://www.w3.org/2000/svg">
<path d="M34.0115 135.446L139.619 57.8967L245.988 135.446L139.378 195.714L34.0115 135.446Z" fill="#5F98C9"/>
<path d="M211.361 195.95C211.35 197.31 211.344 198.671 211.333 200.032H69.3896C68.936 136.08 68.8912 73.9872 69.3448 14.168C69.358 12.6906 69.9547 11.2783 71.0047 10.2388C72.0546 9.1993 73.4729 8.61687 74.9503 8.61841H205.778C207.254 8.61703 208.672 9.19968 209.721 10.2393C210.77 11.2789 211.366 12.6911 211.378 14.168C211.82 72.7104 211.786 133.437 211.361 195.95Z" fill="#F0F2FC"/>
<path d="M211.361 195.95L202.009 200.032H123.525L123.345 199.685C124.531 198.154 156.753 169.454 175.929 152.421C180.329 148.512 183.851 143.715 186.262 138.347C188.674 132.978 189.921 127.16 189.921 121.274V8.61841H205.78C207.257 8.61703 208.674 9.19968 209.723 10.2393C210.772 11.2789 211.368 12.6911 211.38 14.168C211.82 72.7104 211.786 133.437 211.361 195.95Z" fill="#C3C6F2"/>
<path d="M245.985 271.88L177.206 241.142L140 224.515L100.621 242.11L34.0143 271.88C33.2247 260.596 32.6311 249.31 32.2335 238.022C31.0241 203.823 31.6185 169.584 34.0143 135.447C41.0871 138.69 89.6503 167.065 118.675 183.758C129.791 190.142 138.034 194.818 140 195.714C142.061 194.774 150.281 190.114 161.325 183.764C177.677 174.356 200.205 161.246 218.053 151.004C231.795 143.114 242.76 136.926 245.985 135.447C249.172 180.869 249.172 226.458 245.985 271.88Z" fill="#8388F0"/>
<path d="M245.986 271.88C175.375 275.509 104.625 275.509 34.0144 271.88L64.3496 240.307L118.675 183.758C129.791 190.142 138.034 194.818 140 195.714C142.061 194.774 150.282 190.114 161.325 183.764L208.936 233.318L245.986 271.88Z" fill="#8BB6F0"/>
<path d="M169.428 81.4408C169.428 91.42 156.251 99.512 140 99.512C134.125 99.5716 128.301 98.4261 122.886 96.1464C115.433 92.8648 110.572 87.5 110.572 81.4408C110.572 71.456 123.749 63.3696 140 63.3696C141.857 63.3688 143.711 63.4773 145.555 63.6944C159.152 65.2848 169.428 72.6208 169.428 81.4408Z" fill="#E8C380"/>
<path d="M157.864 78.3944C157.864 88.3736 144.687 96.4656 128.43 96.4656C126.578 96.4655 124.727 96.3589 122.886 96.1464C115.433 92.8648 110.572 87.5 110.572 81.4408C110.572 71.456 123.749 63.3696 140 63.3696C141.857 63.3688 143.711 63.4773 145.555 63.6944C153.009 66.976 157.864 72.3352 157.864 78.3944Z" fill="#F8ECA3"/>
<path d="M169.909 89.6672L161.112 117.684C160.86 118.491 160.357 119.197 159.676 119.698C158.995 120.198 158.172 120.468 157.326 120.467H122.673C121.828 120.468 121.005 120.198 120.323 119.698C119.642 119.197 119.139 118.491 118.888 117.684L116.872 111.266L110.09 89.6672C109.978 89.3207 109.971 88.9485 110.07 88.598C110.17 88.2475 110.371 87.9345 110.65 87.6991C110.928 87.4636 111.27 87.3163 111.632 87.2759C111.994 87.2354 112.36 87.3037 112.683 87.472C113.892 88.0868 115.23 88.4072 116.586 88.4072C117.943 88.4072 119.28 88.0868 120.489 87.472C121.698 86.8573 123.034 86.5368 124.39 86.5368C125.745 86.5368 127.082 86.8573 128.29 87.472C129.499 88.0868 130.837 88.4072 132.193 88.4072C133.55 88.4072 134.887 88.0868 136.097 87.472C137.306 86.8573 138.643 86.5368 140 86.5368C141.356 86.5368 142.694 86.8573 143.903 87.472C145.112 88.0868 146.45 88.4072 147.806 88.4072C149.163 88.4072 150.5 88.0868 151.709 87.472C152.917 86.8565 154.254 86.5356 155.61 86.5356C156.966 86.5356 158.302 86.8565 159.51 87.472C160.72 88.0868 162.057 88.4072 163.413 88.4072C164.77 88.4072 166.107 88.0868 167.317 87.472C167.64 87.3084 168.005 87.2437 168.365 87.286C168.725 87.3283 169.064 87.4758 169.341 87.7101C169.617 87.9443 169.819 88.2549 169.92 88.603C170.021 88.951 170.018 89.3212 169.909 89.6672Z" fill="#9B65E9"/>
<path d="M140 18.5887C132.328 27.7531 134.351 32.1295 136.881 34.1091C137.772 34.8034 138.87 35.1804 140 35.1804C141.13 35.1804 142.228 34.8034 143.119 34.1091C145.649 32.1295 147.672 27.7531 140 18.5887Z" fill="#FFDC5E"/>
<path d="M145.499 46.5864V64.1536C145.499 64.5129 145.428 64.8687 145.29 65.2005C145.153 65.5324 144.951 65.8338 144.696 66.0877C144.442 66.3415 144.14 66.5426 143.808 66.6797C143.476 66.8168 143.12 66.887 142.761 66.8864H137.239C136.88 66.887 136.524 66.8168 136.192 66.6797C135.86 66.5426 135.558 66.3415 135.303 66.0877C135.049 65.8338 134.847 65.5324 134.71 65.2005C134.572 64.8687 134.501 64.5129 134.501 64.1536V46.5864C134.501 45.8602 134.789 45.1638 135.303 44.6502C135.816 44.1367 136.513 43.8482 137.239 43.848H142.761C143.487 43.8482 144.183 44.1367 144.697 44.6502C145.21 45.1638 145.499 45.8602 145.499 46.5864Z" fill="#D559BA"/>
<path d="M141.383 43.848V60.144C141.382 60.8694 141.093 61.5645 140.579 62.0769C140.066 62.5893 139.37 62.877 138.645 62.8768H134.501V46.5864C134.501 45.8602 134.789 45.1638 135.303 44.6502C135.816 44.1367 136.513 43.8482 137.239 43.848H141.383Z" fill="#EF8BBD"/>
<path d="M32.2336 238.022C49.168 239.383 74.3736 241.158 100.621 242.11L34.0144 271.88C33.2248 260.596 32.6312 249.31 32.2336 238.022Z" fill="#934CD7"/>
<path d="M245.986 271.88L177.206 241.142C194.813 239.422 207.788 236.197 211.697 230.714C219.996 219.072 220.08 183.736 218.053 151.004C231.795 143.114 242.76 136.926 245.986 135.447C249.172 180.869 249.172 226.458 245.986 271.88Z" fill="#934CD7"/>
<path d="M245.986 271.88C175.375 275.509 104.625 275.509 34.0144 271.88L64.3496 240.307C116.614 243.538 191.033 245.666 208.936 233.318L245.986 271.88Z" fill="#5F98C9"/>
<path d="M169.91 89.6672L161.112 117.684C160.861 118.491 160.358 119.197 159.677 119.698C158.995 120.198 158.172 120.468 157.326 120.467H122.674C121.828 120.468 121.005 120.198 120.324 119.698C119.642 119.197 119.139 118.491 118.888 117.684L116.872 111.266L138.718 111.474C140.812 111.493 142.889 111.096 144.83 110.308C146.77 109.52 148.535 108.356 150.023 106.882C151.511 105.408 152.693 103.654 153.499 101.721C154.306 99.7879 154.722 97.7144 154.722 95.62V86.5816C156.371 86.4109 158.034 86.7201 159.51 87.472C160.72 88.0868 162.057 88.4072 163.414 88.4072C164.77 88.4072 166.108 88.0868 167.317 87.472C167.64 87.3083 168.005 87.2436 168.365 87.286C168.725 87.3283 169.064 87.4758 169.341 87.71C169.618 87.9443 169.819 88.2548 169.92 88.6029C170.021 88.951 170.018 89.3212 169.91 89.6672Z" fill="#934CD7"/>
<path d="M170.919 140.86C168.701 140.904 166.508 140.381 164.548 139.339C163.332 138.705 161.981 138.374 160.61 138.374C159.239 138.374 157.888 138.705 156.672 139.339C154.697 140.339 152.515 140.86 150.302 140.86C148.088 140.86 145.906 140.339 143.931 139.339C142.716 138.706 141.365 138.375 139.995 138.375C138.624 138.375 137.274 138.706 136.058 139.339C134.084 140.339 131.902 140.86 129.689 140.86C127.476 140.86 125.294 140.339 123.32 139.339C122.104 138.706 120.754 138.375 119.383 138.375C118.012 138.375 116.661 138.706 115.446 139.339C113.471 140.339 111.289 140.86 109.076 140.86C106.863 140.86 104.681 140.339 102.707 139.339C101.507 138.665 100.146 138.332 98.7712 138.375C98.0286 138.375 97.3164 138.08 96.7913 137.555C96.2662 137.03 95.9712 136.317 95.9712 135.575C95.9712 134.832 96.2662 134.12 96.7913 133.595C97.3164 133.07 98.0286 132.775 98.7712 132.775C100.989 132.73 103.182 133.254 105.141 134.296C106.356 134.929 107.707 135.26 109.077 135.26C110.448 135.26 111.798 134.929 113.014 134.296C114.988 133.296 117.17 132.775 119.383 132.775C121.596 132.775 123.778 133.296 125.753 134.296C126.968 134.93 128.318 135.261 129.689 135.261C131.059 135.261 132.409 134.93 133.624 134.296C135.599 133.296 137.781 132.775 139.994 132.775C142.207 132.775 144.389 133.296 146.363 134.296C147.579 134.93 148.93 135.26 150.301 135.26C151.672 135.26 153.023 134.93 154.239 134.296C156.214 133.296 158.397 132.775 160.61 132.775C162.824 132.775 165.006 133.296 166.981 134.296C168.197 134.93 169.548 135.261 170.919 135.261C172.291 135.261 173.642 134.93 174.858 134.296C176.817 133.254 179.01 132.731 181.229 132.775C181.972 132.775 182.684 133.07 183.209 133.596C183.734 134.121 184.029 134.833 184.029 135.575C184.029 136.318 183.734 137.03 183.209 137.555C182.684 138.08 181.972 138.375 181.229 138.375C179.853 138.332 178.491 138.666 177.29 139.34C175.331 140.381 173.138 140.904 170.919 140.86Z" fill="#934CD7"/>
<path d="M176.782 157.84C174.31 157.894 171.857 157.399 169.599 156.392C167.993 155.707 166.265 155.354 164.52 155.354C162.774 155.354 161.046 155.707 159.44 156.392C157.166 157.348 154.724 157.84 152.258 157.84C149.791 157.84 147.349 157.348 145.075 156.392C143.469 155.707 141.742 155.354 139.996 155.354C138.251 155.354 136.523 155.707 134.917 156.392C132.643 157.348 130.201 157.84 127.735 157.84C125.268 157.84 122.826 157.348 120.552 156.392C118.946 155.707 117.219 155.354 115.474 155.354C113.728 155.354 112.001 155.707 110.396 156.392C108.122 157.347 105.68 157.84 103.214 157.84C100.747 157.84 98.3054 157.347 96.0316 156.392C94.442 155.658 92.704 155.303 90.9541 155.354C90.2114 155.354 89.4993 155.059 88.9742 154.534C88.449 154.009 88.1541 153.297 88.1541 152.554C88.1541 151.811 88.449 151.099 88.9742 150.574C89.4993 150.049 90.2114 149.754 90.9541 149.754C93.4255 149.699 95.8783 150.193 98.1361 151.2C99.7413 151.885 101.468 152.238 103.214 152.238C104.959 152.238 106.686 151.885 108.291 151.2C110.565 150.244 113.007 149.752 115.473 149.752C117.94 149.752 120.382 150.244 122.656 151.2C124.261 151.885 125.989 152.238 127.734 152.238C129.48 152.238 131.207 151.885 132.813 151.2C135.087 150.244 137.529 149.752 139.996 149.752C142.463 149.752 144.905 150.244 147.179 151.2C148.784 151.885 150.512 152.238 152.257 152.238C154.003 152.238 155.73 151.885 157.336 151.2C159.61 150.244 162.052 149.752 164.519 149.752C166.986 149.752 169.428 150.244 171.702 151.2C173.308 151.885 175.036 152.238 176.782 152.238C178.528 152.238 180.256 151.885 181.862 151.2C184.12 150.192 186.574 149.698 189.046 149.752C189.788 149.752 190.501 150.047 191.026 150.572C191.551 151.097 191.846 151.809 191.846 152.552C191.846 153.294 191.551 154.007 191.026 154.532C190.501 155.057 189.788 155.352 189.046 155.352C187.295 155.301 185.556 155.656 183.966 156.389C181.708 157.398 179.255 157.893 176.782 157.84Z" fill="#934CD7"/>
<path d="M248.778 272.095C251.485 226.48 252.909 179.583 248.209 134.239C248.191 134.034 248.132 133.836 248.034 133.655C247.936 133.475 247.802 133.316 247.641 133.189L247.635 133.185L214.494 109.021C214.514 76.258 214.409 44.4915 214.178 14.1473C214.154 11.9333 213.26 9.81753 211.687 8.25854C210.115 6.69955 207.992 5.82286 205.778 5.81842H74.9505C72.7364 5.82444 70.6135 6.70139 69.0407 8.25976C67.4679 9.81813 66.5713 11.9328 66.5449 14.1467C66.3158 44.2748 66.2089 75.8028 66.229 108.316L32.3569 133.19C32.0295 133.431 31.7582 133.74 31.5617 134.096C31.3653 134.452 31.2483 134.846 31.2189 135.252C28.0418 180.811 28.0429 226.536 31.2223 272.095C31.2583 272.538 31.3988 272.966 31.6325 273.345C31.8661 273.723 32.1862 274.04 32.5663 274.271C103.126 278.95 175.231 277.967 246.131 274.678C246.809 274.637 247.449 274.353 247.935 273.879C248.421 273.405 248.72 272.772 248.778 272.095ZM36.5048 140.098L114.098 184.48L36.39 265.365C33.7531 223.649 33.7914 181.808 36.5048 140.098ZM187.853 171.67C194.858 167.492 235.58 144.562 243.494 140.072C246.209 181.791 246.248 223.641 243.61 265.365L165.826 184.404C172.512 180.55 179.992 176.22 187.853 171.67ZM240.668 135.036C235.121 138.022 225.598 143.436 214.404 149.868C214.446 138.46 214.474 127.153 214.487 115.946L240.668 135.036ZM72.1449 14.1932C72.1546 13.455 72.4543 12.7502 72.9792 12.231C73.5041 11.7119 74.2122 11.42 74.9505 11.4184H205.778C206.515 11.4191 207.222 11.7103 207.747 12.229C208.271 12.7477 208.569 13.452 208.578 14.1893C208.914 57.9567 208.983 104.685 208.791 153.099C200.361 158.103 149.193 186.935 139.602 192.371C133.874 189.28 124.37 183.792 120.071 181.328C105.58 172.994 86.9748 162.19 71.9338 153.527C71.74 104.961 71.8111 58.0888 72.1449 14.1932ZM66.3209 150.297C54.7681 143.657 44.9401 138.069 39.3121 135.031L66.2358 115.259C66.2477 126.825 66.2757 138.504 66.3198 150.297H66.3209ZM40.2859 269.392L119.112 187.346L137.991 198.145C138.499 198.438 139.088 198.561 139.671 198.496C140.647 198.648 141.515 198.098 142.354 197.674C147.031 195.193 151.09 192.854 160.824 187.281L239.711 269.389C173.152 272.589 106.13 272.59 40.2859 269.392Z" fill="#2A2A38"/>
<path d="M107.421 90.5033L116.213 118.525C116.641 119.903 117.499 121.107 118.662 121.961C119.825 122.814 121.231 123.273 122.673 123.268H157.324C158.767 123.273 160.173 122.815 161.336 121.961C162.499 121.107 163.357 119.903 163.785 118.525L172.577 90.5033C172.825 89.7124 172.856 88.8694 172.666 88.0624C172.477 87.2555 172.074 86.5145 171.499 85.9169C175.06 73.6126 164.048 64.1587 148.297 61.2596V43.8508C148.297 43.1082 148.002 42.396 147.477 41.8709C146.952 41.3458 146.24 41.0508 145.497 41.0508H134.501C133.758 41.0508 133.046 41.3458 132.521 41.8709C131.996 42.396 131.701 43.1082 131.701 43.8508V61.2596C115.95 64.1598 104.939 73.6109 108.499 85.9164C107.924 86.514 107.521 87.2551 107.332 88.0621C107.142 88.8692 107.173 89.7124 107.421 90.5033ZM158.443 116.849C158.369 117.087 158.22 117.295 158.018 117.443C157.817 117.591 157.573 117.67 157.323 117.668H122.674C122.424 117.67 122.181 117.591 121.979 117.443C121.777 117.296 121.629 117.087 121.554 116.849L113.363 90.7436C116.157 91.5622 119.157 91.2852 121.754 89.9691C122.57 89.5553 123.473 89.3397 124.388 89.3397C125.303 89.3397 126.205 89.5553 127.021 89.9691C128.624 90.7816 130.396 91.205 132.193 91.205C133.99 91.205 135.762 90.7816 137.365 89.9691C138.181 89.5554 139.083 89.3399 139.997 89.3399C140.912 89.3399 141.814 89.5554 142.629 89.9691C144.232 90.7813 146.004 91.2045 147.8 91.2045C149.597 91.2045 151.369 90.7813 152.971 89.9691C153.787 89.5558 154.689 89.3404 155.603 89.3404C156.518 89.3404 157.42 89.5558 158.235 89.9691C160.833 91.2841 163.833 91.561 166.628 90.7436L158.443 116.849ZM137.301 46.6508H142.699V64.0881H137.301V46.6508ZM131.707 66.9492C131.722 67.6804 132.023 68.3767 132.545 68.8887C133.067 69.4007 133.77 69.6877 134.501 69.6881H145.499C146.231 69.6877 146.933 69.4007 147.455 68.8887C147.977 68.3767 148.278 67.6804 148.293 66.9492C160.213 69.4333 169.304 76.2922 165.827 85.073C165.033 85.4372 164.167 85.6177 163.294 85.6012C162.42 85.5847 161.562 85.3717 160.782 84.9778C159.174 84.1632 157.397 83.7399 155.595 83.7422C153.793 83.7445 152.017 84.1725 150.412 84.9912C149.598 85.3984 148.7 85.6093 147.79 85.6068C146.88 85.6044 145.983 85.3888 145.172 84.9772C143.569 84.1648 141.797 83.7414 140 83.7414C138.202 83.7414 136.43 84.1648 134.827 84.9772C134.016 85.3884 133.119 85.6038 132.21 85.606C131.3 85.6082 130.402 85.3973 129.589 84.9901C127.983 84.1714 126.207 83.7434 124.405 83.7411C122.603 83.7387 120.826 84.1621 119.218 84.9767C118.438 85.3702 117.58 85.5832 116.706 85.5997C115.833 85.6163 114.967 85.4361 114.173 85.0724C110.696 76.2939 119.784 69.4339 131.707 66.9492Z" fill="#2A2A38"/>
<path d="M135.155 36.3143C140.22 40.3284 147.577 36.643 148.148 30.4343C148.555 26.5614 146.593 22.0976 142.149 16.7894C141.885 16.4782 141.556 16.2283 141.185 16.057C140.814 15.8856 140.411 15.7968 140.002 15.7968C139.594 15.7968 139.19 15.8856 138.82 16.057C138.449 16.2283 138.12 16.4782 137.855 16.7894C133.412 22.0976 131.45 26.5608 131.857 30.4343C131.974 31.5882 132.328 32.7057 132.895 33.7173C133.462 34.7288 134.232 35.6128 135.155 36.3143ZM140 23.1963C142.421 26.7355 142.684 28.8277 142.576 29.8502C142.489 31.6697 140.179 33.1884 138.607 31.9049C136.481 30.2019 137.269 27.3403 140 23.1963Z" fill="#2A2A38"/>
</svg>
